<?xml version="1.0" encoding="UTF-8"?>
<svg xmlns="http://www.w3.org/2000/svg" viewBox="0 0 341.51 341.51" fill="#b02828">
  <polygon points="245.71 94.68 305.96 34.42 336.1 124.81 245.71 94.68"/>
  <polygon points="37.08 309.15 97.34 248.89 6.95 218.76 37.08 309.15"/>
  <path d="m258.85,64.14c2.21-2.93,4.49-5.79,6.89-8.5,4.76-5.37,9.68-10.55,14.32-15.87C250.43,14.97,212.32,0,170.75,0,76.6,0,0,76.6,0,170.75c0,11.28,1.12,22.28,3.22,32.95l45.24,15.08c-5.87-14.89-9.13-31.08-9.13-48.03,0-72.46,58.96-131.42,131.42-131.42,31.28,0,60,11.02,82.58,29.35,1.8-1.53,3.64-3.05,5.52-4.54Z"/>
  <path d="m338.58,139.46l-44.83-14.94c5.43,14.39,8.42,29.96,8.42,46.23,0,72.46-58.96,131.42-131.42,131.42-30.65,0-58.85-10.58-81.22-28.24-8.92,9.69-18.25,19.01-27.76,28.13,29.59,24.61,67.58,39.45,108.98,39.45,94.15,0,170.76-76.6,170.76-170.76,0-10.69-1.04-21.13-2.93-31.29Z"/>
</svg>