<svg height="16" viewBox="0 0 16 16" width="16" xmlns="http://www.w3.org/2000/svg"><path d="m.50028194 8c-.00590175-.68286873.08091073-1.35450378.25492856-2l3.7447895 2.91605896c-.69688564.21487299-1.29775789.39800361-1.80261675.54939189.64143924 2.32615765 2.77251989 4.03454915 5.30261675 4.03454915 1.97307333 0 3.7631925-1.0467379 4.7453301-2.717323l1.7241208 1.0136111c-1.3378311 2.2756087-3.780157 3.7037119-6.4694509 3.7037119-4.14213562 0-7.5-3.3578644-7.5-7.5zm14.99943616 0c.0059017.68286873-.0809108 1.35450378-.2549286 2l-3.7447895-2.91605896c.6968856-.21487299 1.2977579-.39800361 1.8026167-.54939189-.6414392-2.32615769-2.7725198-4.03454915-5.3026167-4.03454915-2.0083057 0-3.82573707 1.08476789-4.7947054 2.80306702l-1.74209949-.98238962c1.32001575-2.34082151 3.79938164-3.8206774 6.53680489-3.8206774 4.1421356 0 7.5 3.35786438 7.5 7.5z" fill="#b02626" fill-rule="evenodd"/></svg>